<svg width="55" height="55" viewBox="0 0 55 55" fill="none" xmlns="http://www.w3.org/2000/svg">
<path d="M44.6531 46.1863L30.3027 31.8359C29.1569 32.8121 27.8392 33.5676 26.3496 34.1023C24.86 34.6371 23.3628 34.9044 21.8579 34.9044C18.1882 34.9044 15.0822 33.6341 12.54 31.0934C9.99777 28.5512 8.72665 25.4459 8.72665 21.7777C8.72665 18.1096 9.99624 15.0028 12.5354 12.4575C15.0761 9.91073 18.1805 8.63733 21.8487 8.63733C25.5185 8.63733 28.626 9.90844 31.1712 12.4507C33.7165 14.9929 34.9892 18.0996 34.9892 21.7709C34.9892 23.3628 34.7073 24.9036 34.1435 26.3932C33.5782 27.8827 32.8373 29.1569 31.9206 30.2157L46.271 44.5638L44.6531 46.1863ZM21.8579 32.6105C24.8982 32.6105 27.4656 31.5639 29.5602 29.4709C31.6532 27.3778 32.6998 24.8104 32.6998 21.7686C32.6998 18.7283 31.6532 16.1616 29.5602 14.0686C27.4671 11.9755 24.9005 10.929 21.8602 10.929C18.8199 10.929 16.2525 11.9755 14.1579 14.0686C12.0648 16.1616 11.0183 18.7283 11.0183 21.7686C11.0183 24.8089 12.0648 27.3755 14.1579 29.4686C16.251 31.5616 18.8176 32.6105 21.8579 32.6105Z" fill="#745530"/>
</svg>
